<svg width="56" height="56" viewBox="0 0 56 56" fill="none" xmlns="http://www.w3.org/2000/svg">
<rect width="56" height="56" rx="28" fill="#B2F5DA"/>
<path d="M30.5368 18C32.5469 18 34.1765 19.595 34.1765 21.5625V33.4375C34.1765 35.405 32.5469 37 30.5368 37H16.6397C14.6296 37 13 35.405 13 33.4375V21.5625C13 19.595 14.6296 18 16.6397 18H30.5368ZM42.6455 21.2518C42.875 21.5325 43 21.8814 43 22.2409V32.8624C43 33.7368 42.2758 34.4457 41.3824 34.4457C41.015 34.4457 40.6586 34.3234 40.3718 34.0988L35.9412 30.3741V24.7292L40.3718 21.0045C41.0694 20.4582 42.0874 20.5689 42.6455 21.2518Z" fill="#008069"/>
</svg>
